<svg width="154" height="228" viewBox="0 0 154 228" fill="none" xmlns="http://www.w3.org/2000/svg">
<path d="M41.3887 0.601123L29.1656 4.97341C21.8853 7.5776 18.0946 15.5905 20.6988 22.8707L58.9746 129.874C73.0054 124.855 80.3111 109.412 75.2921 95.3813L41.3887 0.601123Z" fill="url(#paint0_linear_1692_38014)"/>
<path d="M97.2966 37.979L87.5791 43.4303C80.8357 47.2131 78.4358 55.7464 82.2187 62.4898L120.017 129.869C132.127 123.075 136.437 107.751 129.643 95.6407L97.2966 37.979Z" fill="url(#paint1_linear_1692_38014)"/>
<path d="M66.3965 62.7165C68.0959 47.3462 81.9337 36.2637 97.304 37.9631L89.8781 105.126C88.1787 120.496 74.3409 131.578 58.9706 129.879L66.3965 62.7165Z" fill="url(#paint2_linear_1692_38014)"/>
<path d="M150.921 105.119C149.221 120.489 135.384 131.571 120.013 129.872L125.701 78.4272C126.551 70.7421 133.47 65.2008 141.155 66.0506C148.84 66.9003 154.382 73.8191 153.532 81.5043L150.921 105.119Z" fill="url(#paint3_linear_1692_38014)"/>
<path d="M10.4797 25.3491C12.1791 9.97877 26.0169 -1.10368 41.3872 0.59575L28.3689 118.338C27.5192 126.023 20.6004 131.565 12.9152 130.715C5.23004 129.865 -0.311177 122.946 0.538537 115.261L10.4797 25.3491Z" fill="url(#paint4_linear_1692_38014)"/>
<path d="M12.1314 183V153.909H32.4155V159.619H19.1626V165.585H31.3786V171.31H19.1626V177.29H32.4155V183H12.1314ZM52.5433 162.631C52.4486 161.589 52.0272 160.779 51.2791 160.202C50.5405 159.615 49.4846 159.321 48.1115 159.321C47.2024 159.321 46.4448 159.439 45.8388 159.676C45.2327 159.913 44.7782 160.24 44.4751 160.656C44.1721 161.063 44.0159 161.532 44.0064 162.062C43.9875 162.498 44.0727 162.882 44.2621 163.213C44.4609 163.545 44.745 163.838 45.1143 164.094C45.4931 164.34 45.9477 164.558 46.478 164.747C47.0083 164.937 47.6049 165.102 48.2678 165.244L50.7678 165.812C52.2072 166.125 53.4761 166.542 54.5746 167.062C55.6825 167.583 56.6106 168.204 57.3587 168.923C58.1162 169.643 58.6892 170.472 59.0774 171.409C59.4657 172.347 59.6645 173.398 59.674 174.562C59.6645 176.4 59.2005 177.976 58.282 179.293C57.3634 180.609 56.0424 181.617 54.3189 182.318C52.6049 183.019 50.5357 183.369 48.1115 183.369C45.6778 183.369 43.5566 183.005 41.7479 182.276C39.9392 181.546 38.5329 180.438 37.5291 178.952C36.5253 177.465 36.0092 175.585 35.9808 173.312H42.7138C42.7706 174.25 43.0215 175.031 43.4666 175.656C43.9117 176.281 44.5225 176.755 45.299 177.077C46.085 177.399 46.9941 177.56 48.0263 177.56C48.9732 177.56 49.7782 177.432 50.4411 177.176C51.1134 176.92 51.6295 176.565 51.9893 176.111C52.3492 175.656 52.5339 175.135 52.5433 174.548C52.5339 173.999 52.3634 173.53 52.032 173.142C51.7005 172.744 51.1892 172.403 50.4979 172.119C49.8161 171.826 48.9448 171.556 47.8842 171.31L44.8445 170.599C42.3255 170.022 40.3416 169.089 38.8928 167.801C37.4439 166.504 36.7242 164.752 36.7337 162.545C36.7242 160.746 37.2071 159.17 38.1825 157.815C39.1579 156.461 40.5073 155.405 42.2308 154.648C43.9543 153.89 45.9193 153.511 48.1257 153.511C50.3795 153.511 52.335 153.895 53.9922 154.662C55.6589 155.42 56.9515 156.485 57.87 157.858C58.7886 159.231 59.2573 160.822 59.2763 162.631H52.5433ZM80.8246 153.909H87.8416V172.673C87.8416 174.842 87.3255 176.731 86.2933 178.341C85.2611 179.941 83.8217 181.182 81.9751 182.062C80.1286 182.934 77.9837 183.369 75.5405 183.369C73.0689 183.369 70.9098 182.934 69.0632 182.062C67.2166 181.182 65.782 179.941 64.7592 178.341C63.7365 176.731 63.2251 174.842 63.2251 172.673V153.909H70.2564V172.062C70.2564 173.066 70.4742 173.961 70.9098 174.747C71.3549 175.533 71.9751 176.149 72.7706 176.594C73.5661 177.039 74.4893 177.261 75.5405 177.261C76.5916 177.261 77.5102 177.039 78.2962 176.594C79.0916 176.149 79.7119 175.533 80.157 174.747C80.602 173.961 80.8246 173.066 80.8246 172.062V153.909ZM92.2486 183V153.909H99.2798V177.29H111.382V183H92.2486ZM121.705 183H114.148L123.964 153.909H133.325L143.14 183H135.583L128.751 161.239H128.523L121.705 183ZM120.697 171.551H136.492V176.892H120.697V171.551ZM14.1538 223H3.40092V193.909H14.1396C17.1036 193.909 19.6557 194.491 21.7958 195.656C23.9454 196.812 25.6026 198.478 26.7674 200.656C27.9322 202.825 28.5146 205.42 28.5146 208.44C28.5146 211.471 27.9322 214.075 26.7674 216.253C25.6121 218.431 23.9596 220.102 21.81 221.267C19.6604 222.422 17.1083 223 14.1538 223ZM10.4322 217.006H13.8839C15.5127 217.006 16.8905 216.731 18.0174 216.182C19.1538 215.623 20.0108 214.719 20.5884 213.469C21.1755 212.209 21.4691 210.533 21.4691 208.44C21.4691 206.348 21.1755 204.681 20.5884 203.44C20.0013 202.19 19.1348 201.291 17.989 200.741C16.8526 200.183 15.4511 199.903 13.7844 199.903H10.4322V217.006ZM32.6197 223V193.909H52.9038V199.619H39.6509V205.585H51.8668V211.31H39.6509V217.29H52.9038V223H32.6197ZM73.0316 202.631C72.9369 201.589 72.5155 200.779 71.7674 200.202C71.0288 199.615 69.9729 199.321 68.5998 199.321C67.6907 199.321 66.9331 199.439 66.3271 199.676C65.721 199.913 65.2665 200.24 64.9634 200.656C64.6604 201.063 64.5041 201.532 64.4947 202.062C64.4757 202.498 64.561 202.882 64.7504 203.213C64.9492 203.545 65.2333 203.838 65.6026 204.094C65.9814 204.34 66.436 204.558 66.9663 204.747C67.4966 204.937 68.0932 205.102 68.756 205.244L71.256 205.812C72.6954 206.125 73.9644 206.542 75.0629 207.062C76.1708 207.583 77.0988 208.204 77.8469 208.923C78.6045 209.643 79.1774 210.472 79.5657 211.409C79.954 212.347 80.1528 213.398 80.1623 214.562C80.1528 216.4 79.6888 217.976 78.7702 219.293C77.8517 220.609 76.5307 221.617 74.8072 222.318C73.0932 223.019 71.024 223.369 68.5998 223.369C66.1661 223.369 64.0449 223.005 62.2362 222.276C60.4274 221.546 59.0212 220.438 58.0174 218.952C57.0136 217.465 56.4975 215.585 56.4691 213.312H63.2021C63.2589 214.25 63.5098 215.031 63.9549 215.656C64.4 216.281 65.0108 216.755 65.7873 217.077C66.5733 217.399 67.4824 217.56 68.5146 217.56C69.4615 217.56 70.2665 217.432 70.9293 217.176C71.6017 216.92 72.1178 216.565 72.4776 216.111C72.8375 215.656 73.0221 215.135 73.0316 214.548C73.0221 213.999 72.8517 213.53 72.5202 213.142C72.1888 212.744 71.6774 212.403 70.9862 212.119C70.3043 211.826 69.4331 211.556 68.3725 211.31L65.3327 210.599C62.8138 210.022 60.8299 209.089 59.381 207.801C57.9322 206.504 57.2125 204.752 57.2219 202.545C57.2125 200.746 57.6954 199.17 58.6708 197.815C59.6462 196.461 60.9956 195.405 62.7191 194.648C64.4426 193.89 66.4076 193.511 68.614 193.511C70.8678 193.511 72.8233 193.895 74.4805 194.662C76.1471 195.42 77.4397 196.485 78.3583 197.858C79.2769 199.231 79.7456 200.822 79.7646 202.631H73.0316ZM90.7447 193.909V223H83.7134V193.909H90.7447ZM114.25 203.412C114.089 202.815 113.852 202.29 113.539 201.835C113.227 201.371 112.843 200.978 112.389 200.656C111.934 200.334 111.413 200.093 110.826 199.932C110.239 199.761 109.595 199.676 108.895 199.676C107.484 199.676 106.262 200.017 105.23 200.699C104.207 201.381 103.416 202.375 102.858 203.682C102.299 204.979 102.02 206.556 102.02 208.412C102.02 210.277 102.289 211.868 102.829 213.185C103.369 214.501 104.15 215.505 105.173 216.196C106.196 216.887 107.436 217.233 108.895 217.233C110.182 217.233 111.271 217.025 112.162 216.608C113.061 216.182 113.743 215.58 114.207 214.804C114.671 214.027 114.903 213.114 114.903 212.062L116.21 212.219H109.136V207.091H121.679V210.94C121.679 213.545 121.125 215.775 120.017 217.631C118.918 219.487 117.403 220.912 115.471 221.906C113.549 222.901 111.338 223.398 108.838 223.398C106.063 223.398 103.625 222.796 101.522 221.594C99.4201 220.391 97.7818 218.677 96.6076 216.452C95.4334 214.217 94.8462 211.565 94.8462 208.497C94.8462 206.111 95.2013 203.994 95.9116 202.148C96.6218 200.292 97.6114 198.72 98.8803 197.432C100.159 196.144 101.636 195.169 103.312 194.506C104.998 193.843 106.811 193.511 108.752 193.511C110.438 193.511 112.005 193.753 113.454 194.236C114.913 194.719 116.2 195.401 117.318 196.281C118.445 197.162 119.359 198.208 120.059 199.42C120.76 200.633 121.196 201.963 121.366 203.412H114.25ZM150.581 193.909V223H144.615L133.039 206.21H132.854V223H125.823V193.909H131.874L143.323 210.67H143.564V193.909H150.581Z" fill="#CFC291"/>
<defs>
<linearGradient id="paint0_linear_1692_38014" x1="77.0352" y1="0.423706" x2="77.0352" y2="130.801" gradientUnits="userSpaceOnUse">
<stop stop-color="#5133EF"/>
<stop offset="0.482292" stop-color="#364BA1"/>
<stop offset="1" stop-color="#5133EE"/>
</linearGradient>
<linearGradient id="paint1_linear_1692_38014" x1="77.0352" y1="0.423706" x2="77.0352" y2="130.801" gradientUnits="userSpaceOnUse">
<stop stop-color="#5133EF"/>
<stop offset="0.482292" stop-color="#364BA1"/>
<stop offset="1" stop-color="#5133EE"/>
</linearGradient>
<linearGradient id="paint2_linear_1692_38014" x1="27.472" y1="-0.942781" x2="12.9152" y2="130.715" gradientUnits="userSpaceOnUse">
<stop stop-color="#77BEF4"/>
<stop offset="1" stop-color="#F916A7"/>
</linearGradient>
<linearGradient id="paint3_linear_1692_38014" x1="27.472" y1="-0.942781" x2="12.9152" y2="130.715" gradientUnits="userSpaceOnUse">
<stop stop-color="#77BEF4"/>
<stop offset="1" stop-color="#F916A7"/>
</linearGradient>
<linearGradient id="paint4_linear_1692_38014" x1="27.472" y1="-0.942781" x2="12.9152" y2="130.715" gradientUnits="userSpaceOnUse">
<stop stop-color="#77BEF4"/>
<stop offset="1" stop-color="#F916A7"/>
</linearGradient>
</defs>
</svg>
